<?xml version="1.0" encoding="UTF-8"?>
<svg id="Layer_2" data-name="Layer 2" xmlns="http://www.w3.org/2000/svg" viewBox="0 0 171.73 126.3">
  <defs>
    <style>
      .cls-1 {
        fill: #015132;
      }
    </style>
  </defs>
  <g id="Layer_1-2" data-name="Layer 1">
    <g>
      <path class="cls-1" d="M87.89,76.38c-15.4-1.21-28.16,11.55-26.95,26.95.96,12.12,10.77,21.94,22.89,22.89,15.4,1.21,28.16-11.54,26.95-26.95-.96-12.12-10.77-21.94-22.89-22.89Z"/>
      <path class="cls-1" d="M85.86,56.3c-16.57,0-31.04,8.96-38.85,22.29-.96,1.63-.49,3.73,1.03,4.86h0c1.8,1.34,4.35.79,5.49-1.15,6.52-11.07,18.55-18.5,32.33-18.5s25.81,7.43,32.33,18.5c1.14,1.94,3.69,2.49,5.49,1.15h0c1.52-1.13,1.98-3.23,1.03-4.86-7.81-13.33-22.28-22.29-38.85-22.29Z"/>
      <path class="cls-1" d="M85.86,37.96c-22.56,0-42.43,11.5-54.09,28.96-1.1,1.65-.7,3.89.9,5.07h0c1.71,1.27,4.15.88,5.33-.89,10.31-15.46,27.89-25.65,47.86-25.65s37.55,10.19,47.86,25.65c1.18,1.77,3.62,2.16,5.33.89h0c1.59-1.19,2-3.42.9-5.07-11.65-17.46-31.52-28.96-54.09-28.96Z"/>
      <path class="cls-1" d="M85.86,19.12c-28.76,0-54.16,14.3-69.54,36.16-1.17,1.66-.79,3.95.84,5.16h0c1.7,1.27,4.1.86,5.32-.88,14.02-19.92,37.18-32.94,63.39-32.94s49.37,13.02,63.39,32.94c1.22,1.73,3.62,2.14,5.32.88h0c1.63-1.21,2-3.5.84-5.16-15.38-21.86-40.78-36.16-69.54-36.16Z"/>
      <path class="cls-1" d="M85.86,0C50.82,0,19.78,17.17.71,43.56c-1.2,1.66-.84,3.99.8,5.21h0c1.68,1.25,4.05.88,5.27-.81C24.5,23.45,53.31,7.5,85.86,7.5s61.37,15.95,79.08,40.46c1.22,1.7,3.6,2.06,5.27.81h0c1.65-1.23,2.01-3.55.8-5.21C151.95,17.17,120.91,0,85.86,0Z"/>
    </g>
  </g>
</svg>